{
  "accessors": [
    {
      "bufferView": 2,
      "componentType": 5126,
      "count": 65532,
      "max": [16.34294319152832, 14.715205192565918, 19.56607437133789],
      "min": [-21.63809585571289, -14.517396926879883, -1.1340899467468262],
      "type": "VEC3"
    },
    {
      "bufferView": 2,
      "byteOffset": 786384,
      "componentType": 5126,
      "count": 65532,
      "max": [0.9999788999557495, 0.999998927116394, 0.9998512268066406],
      "min": [-0.9998498558998108, -0.999987006187439, -0.999924898147583],
      "type": "VEC3"
    },
    {
      "bufferView": 1,
      "componentType": 5126,
      "count": 65532,
      "max": [0.9997029900550842, 0.9997529983520508],
      "min": [0.00030399998649954796, 0.00036899998667649925],
      "type": "VEC2"
    },
    {
      "bufferView": 0,
      "componentType": 5125,
      "count": 233817,
      "type": "SCALAR"
    },
    {
      "bufferView": 2,
      "byteOffset": 1572768,
      "componentType": 5126,
      "count": 65532,
      "max": [16.34294319152832, 14.715205192565918, 19.96839141845703],
      "min": [-21.426939010620117, -14.50910758972168, -0.957859992980957],
      "type": "VEC3"
    },
    {
      "bufferView": 2,
      "byteOffset": 2359152,
      "componentType": 5126,
      "count": 65532,
      "max": [0.9999597072601318, 0.999997615814209, 0.9999567270278931],
      "min": [-0.9999983310699463, -0.9999651908874512, -0.999806821346283],
      "type": "VEC3"
    },
    {
      "bufferView": 1,
      "byteOffset": 524256,
      "componentType": 5126,
      "count": 65532,
      "max": [0.9997360110282898, 0.9997410178184509],
      "min": [0.0003169999981764704, 0.00036899998667649925],
      "type": "VEC2"
    },
    {
      "bufferView": 0,
      "byteOffset": 935268,
      "componentType": 5125,
      "count": 200550,
      "type": "SCALAR"
    },
    {
      "bufferView": 2,
      "byteOffset": 3145536,
      "componentType": 5126,
      "count": 65534,
      "max": [16.308473587036133, 14.702864646911621, 20.030899047851563],
      "min": [-21.621301651000977, -14.513047218322754, -1.1469550132751465],
      "type": "VEC3"
    },
    {
      "bufferView": 2,
      "byteOffset": 3931944,
      "componentType": 5126,
      "count": 65534,
      "max": [0.9999788999557495, 0.9999947547912598, 0.9999850988388062],
      "min": [-0.9999061822891235, -0.999987006187439, -0.999923825263977],
      "type": "VEC3"
    },
    {
      "bufferView": 1,
      "byteOffset": 1048512,
      "componentType": 5126,
      "count": 65534,
      "max": [0.9996979832649231, 0.9997509717941284],
      "min": [0.00026000000070780516, 0.00038300000596791506],
      "type": "VEC2"
    },
    {
      "bufferView": 0,
      "byteOffset": 1737468,
      "componentType": 5125,
      "count": 175926,
      "type": "SCALAR"
    },
    {
      "bufferView": 2,
      "byteOffset": 4718352,
      "componentType": 5126,
      "count": 65532,
      "max": [16.34294319152832, 14.684826850891113, 20.039287567138672],
      "min": [-21.57620620727539, -14.440101623535156, -1.1216709613800049],
      "type": "VEC3"
    },
    {
      "bufferView": 2,
      "byteOffset": 5504736,
      "componentType": 5126,
      "count": 65532,
      "max": [0.9999597072601318, 0.9999713897705078, 0.9999945163726807],
      "min": [-0.9999862909317017, -0.9999990463256836, -0.9999960660934448],
      "type": "VEC3"
    },
    {
      "bufferView": 1,
      "byteOffset": 1572784,
      "componentType": 5126,
      "count": 65532,
      "max": [0.999750018119812, 0.9997550249099731],
      "min": [0.0002699999895412475, 0.00038300000596791506],
      "type": "VEC2"
    },
    {
      "bufferView": 0,
      "byteOffset": 2441172,
      "componentType": 5125,
      "count": 156252,
      "type": "SCALAR"
    },
    {
      "bufferView": 2,
      "byteOffset": 6291120,
      "componentType": 5126,
      "count": 65533,
      "max": [16.191579818725586, 14.69778823852539, 20.04287338256836],
      "min": [-21.44529151916504, -14.476863861083984, -1.1340899467468262],
      "type": "VEC3"
    },
    {
      "bufferView": 2,
      "byteOffset": 7077516,
      "componentType": 5126,
      "count": 65533,
      "max": [0.999731719493866, 0.9999713897705078, 0.9999969005584717],
      "min": [-0.9999451637268066, -0.9999285936355591, -0.999962329864502],
      "type": "VEC3"
    },
    {
      "bufferView": 1,
      "byteOffset": 2097040,
      "componentType": 5126,
      "count": 65533,
      "max": [0.9997519850730896, 0.999754011631012],
      "min": [0.0002469999890308827, 0.00036899998667649925],
      "type": "VEC2"
    },
    {
      "bufferView": 0,
      "byteOffset": 3066180,
      "componentType": 5125,
      "count": 141201,
      "type": "SCALAR"
    },
    {
      "bufferView": 2,
      "byteOffset": 7863912,
      "componentType": 5126,
      "count": 65533,
      "max": [16.323083877563477, 14.712331771850586, 20.008426666259766],
      "min": [-21.54184341430664, -14.461105346679688, -1.0173779726028442],
      "type": "VEC3"
    },
    {
      "bufferView": 2,
      "byteOffset": 8650308,
      "componentType": 5126,
      "count": 65533,
      "max": [0.9999300241470337, 0.9999871253967285, 0.9999935626983643],
      "min": [-0.9999862909317017, -0.9999841451644897, -0.9999960660934448],
      "type": "VEC3"
    },
    {
      "bufferView": 1,
      "byteOffset": 2621304,
      "componentType": 5126,
      "count": 65533,
      "max": [0.9997199773788452, 0.999750018119812],
      "min": [0.0002640000020619482, 0.00037799999699927866],
      "type": "VEC2"
    },
    {
      "bufferView": 0,
      "byteOffset": 3630984,
      "componentType": 5125,
      "count": 119802,
      "type": "SCALAR"
    },
    {
      "bufferView": 2,
      "byteOffset": 9436704,
      "componentType": 5126,
      "count": 65533,
      "max": [16.33194923400879, 13.516175270080566, 20.042423248291016],
      "min": [-21.60075569152832, -14.532761573791504, 2.7745180130004883],
      "type": "VEC3"
    },
    {
      "bufferView": 2,
      "byteOffset": 10223100,
      "componentType": 5126,
      "count": 65533,
      "max": [0.9999312162399292, 0.9999713897705078, 0.9999969005584717],
      "min": [-0.9998683929443359, -0.9999847412109375, -0.999997615814209],
      "type": "VEC3"
    },
    {
      "bufferView": 1,
      "byteOffset": 3145568,
      "componentType": 5126,
      "count": 65533,
      "max": [0.9997509717941284, 0.9997479915618896],
      "min": [0.00024900000425986946, 0.00039000000106170774],
      "type": "VEC2"
    },
    {
      "bufferView": 0,
      "byteOffset": 4110192,
      "componentType": 5125,
      "count": 102927,
      "type": "SCALAR"
    },
    {
      "bufferView": 2,
      "byteOffset": 11009496,
      "componentType": 5126,
      "count": 54678,
      "max": [16.053693771362305, 14.55111026763916, 20.030899047851563],
      "min": [-20.62849998474121, -14.53239917755127, -1.1469550132751465],
      "type": "VEC3"
    },
    {
      "bufferView": 2,
      "byteOffset": 11665632,
      "componentType": 5126,
      "count": 54678,
      "max": [0.9999349117279053, 0.999997615814209, 0.9999969005584717],
      "min": [-0.9999862909317017, -0.9998459219932556, -0.999997615814209],
      "type": "VEC3"
    },
    {
      "bufferView": 1,
      "byteOffset": 3669832,
      "componentType": 5126,
      "count": 54678,
      "max": [0.9997389912605286, 0.9997469782829285],
      "min": [0.00024399999529123306, 0.0004349999944679439],
      "type": "VEC2"
    },
    {
      "bufferView": 0,
      "byteOffset": 4521900,
      "componentType": 5125,
      "count": 69219,
      "type": "SCALAR"
    }
  ],
  "asset": {
    "extras": {
      "author": "dandruffkielbasa (https://sketchfab.com/dandruffkielbasa)",
      "license": "CC-BY-NC-4.0 (http://creativecommons.org/licenses/by-nc/4.0/)",
      "source": "https://sketchfab.com/3d-models/final-fantasy-ship-lowpoly-test-1ae838ac25474e07abaa208c39a79d70",
      "title": "Final Fantasy Ship Lowpoly Test"
    },
    "generator": "Sketchfab-15.55.0",
    "version": "2.0"
  },
  "bufferViews": [
    {
      "buffer": 0,
      "byteLength": 4798776,
      "name": "floatBufferViews",
      "target": 34963
    },
    {
      "buffer": 0,
      "byteLength": 4107256,
      "byteOffset": 4798776,
      "byteStride": 8,
      "name": "floatBufferViews",
      "target": 34962
    },
    {
      "buffer": 0,
      "byteLength": 12321768,
      "byteOffset": 8906032,
      "byteStride": 12,
      "name": "floatBufferViews",
      "target": 34962
    }
  ],
  "buffers": [
    {
      "byteLength": 21227800,
      "uri": "shipmodel.bin"
    }
  ],
  "images": [
    {
      "uri": "textures/ffship1_lq_baseColor.jpeg"
    }
  ],
  "materials": [
    {
      "doubleSided": true,
      "name": "ffship1_lq",
      "pbrMetallicRoughness": {
        "baseColorTexture": {
          "index": 0
        },
        "metallicFactor": 0.0
      }
    }
  ],
  "meshes": [
    {
      "name": "Object_0",
      "primitives": [
        {
          "attributes": {
            "NORMAL": 1,
            "POSITION": 0,
            "TEXCOORD_0": 2
          },
          "indices": 3,
          "material": 0,
          "mode": 4
        }
      ]
    },
    {
      "name": "Object_1",
      "primitives": [
        {
          "attributes": {
            "NORMAL": 5,
            "POSITION": 4,
            "TEXCOORD_0": 6
          },
          "indices": 7,
          "material": 0,
          "mode": 4
        }
      ]
    },
    {
      "name": "Object_2",
      "primitives": [
        {
          "attributes": {
            "NORMAL": 9,
            "POSITION": 8,
            "TEXCOORD_0": 10
          },
          "indices": 11,
          "material": 0,
          "mode": 4
        }
      ]
    },
    {
      "name": "Object_3",
      "primitives": [
        {
          "attributes": {
            "NORMAL": 13,
            "POSITION": 12,
            "TEXCOORD_0": 14
          },
          "indices": 15,
          "material": 0,
          "mode": 4
        }
      ]
    },
    {
      "name": "Object_4",
      "primitives": [
        {
          "attributes": {
            "NORMAL": 17,
            "POSITION": 16,
            "TEXCOORD_0": 18
          },
          "indices": 19,
          "material": 0,
          "mode": 4
        }
      ]
    },
    {
      "name": "Object_5",
      "primitives": [
        {
          "attributes": {
            "NORMAL": 21,
            "POSITION": 20,
            "TEXCOORD_0": 22
          },
          "indices": 23,
          "material": 0,
          "mode": 4
        }
      ]
    },
    {
      "name": "Object_6",
      "primitives": [
        {
          "attributes": {
            "NORMAL": 25,
            "POSITION": 24,
            "TEXCOORD_0": 26
          },
          "indices": 27,
          "material": 0,
          "mode": 4
        }
      ]
    },
    {
      "name": "Object_7",
      "primitives": [
        {
          "attributes": {
            "NORMAL": 29,
            "POSITION": 28,
            "TEXCOORD_0": 30
          },
          "indices": 31,
          "material": 0,
          "mode": 4
        }
      ]
    }
  ],
  "nodes": [
    {
      "children": [1],
      "matrix": [
        1.0, 0.0, 0.0, 0.0, 0.0, 2.220446049250313e-16, -1.0, 0.0, 0.0, 1.0,
        2.220446049250313e-16, 0.0, 0.0, 0.0, 0.0, 1.0
      ],
      "name": "Sketchfab_model"
    },
    {
      "children": [2, 3, 4, 5, 6, 7, 8, 9],
      "name": "ffship1_lq.obj.cleaner.materialmerger.gles"
    },
    {
      "mesh": 0,
      "name": "Object_2"
    },
    {
      "mesh": 1,
      "name": "Object_3"
    },
    {
      "mesh": 2,
      "name": "Object_4"
    },
    {
      "mesh": 3,
      "name": "Object_5"
    },
    {
      "mesh": 4,
      "name": "Object_6"
    },
    {
      "mesh": 5,
      "name": "Object_7"
    },
    {
      "mesh": 6,
      "name": "Object_8"
    },
    {
      "mesh": 7,
      "name": "Object_9"
    }
  ],
  "samplers": [
    {
      "magFilter": 9729,
      "minFilter": 9987,
      "wrapS": 10497,
      "wrapT": 10497
    }
  ],
  "scene": 0,
  "scenes": [
    {
      "name": "Sketchfab_Scene",
      "nodes": [0]
    }
  ],
  "textures": [
    {
      "sampler": 0,
      "source": 0
    }
  ]
}
